<mxfile host="app.diagrams.net" agent="Mozilla/5.0 (Windows NT 10.0; Win64; x64) AppleWebKit/537.36 (KHTML, like Gecko) Chrome/135.0.0.0 Safari/537.36 Edg/135.0.0.0" version="26.2.12">
  <diagram name="ページ1" id="xkykd1ApC_2P7UzqUOBf">
    <mxGraphModel dx="693" dy="833" grid="1" gridSize="10" guides="1" tooltips="1" connect="1" arrows="1" fold="1" page="1" pageScale="1" pageWidth="827" pageHeight="1169" math="0" shadow="0">
      <root>
        <mxCell id="0" />
        <mxCell id="1" parent="0" />
        <mxCell id="5tv2C6Y2cOQbeZCEMZwO-1" value="接続確認" style="swimlane;childLayout=stackLayout;resizeParent=1;resizeParentMax=0;startSize=20;html=1;" vertex="1" parent="1">
          <mxGeometry x="70" y="90" width="490" height="430" as="geometry" />
        </mxCell>
        <mxCell id="5tv2C6Y2cOQbeZCEMZwO-4" value="クライアントプログラム" style="swimlane;startSize=20;html=1;" vertex="1" parent="5tv2C6Y2cOQbeZCEMZwO-1">
          <mxGeometry y="20" width="240" height="410" as="geometry" />
        </mxCell>
        <mxCell id="5tv2C6Y2cOQbeZCEMZwO-57" style="edgeStyle=orthogonalEdgeStyle;rounded=0;orthogonalLoop=1;jettySize=auto;html=1;exitX=0.5;exitY=1;exitDx=0;exitDy=0;entryX=0.5;entryY=0;entryDx=0;entryDy=0;" edge="1" parent="5tv2C6Y2cOQbeZCEMZwO-4" source="5tv2C6Y2cOQbeZCEMZwO-9" target="5tv2C6Y2cOQbeZCEMZwO-47">
          <mxGeometry relative="1" as="geometry" />
        </mxCell>
        <mxCell id="5tv2C6Y2cOQbeZCEMZwO-9" value="信号を受信" style="rounded=0;whiteSpace=wrap;html=1;" vertex="1" parent="5tv2C6Y2cOQbeZCEMZwO-4">
          <mxGeometry x="20" y="70" width="170" height="20" as="geometry" />
        </mxCell>
        <mxCell id="5tv2C6Y2cOQbeZCEMZwO-47" value="信号を送信" style="rounded=0;whiteSpace=wrap;html=1;" vertex="1" parent="5tv2C6Y2cOQbeZCEMZwO-4">
          <mxGeometry x="20" y="190" width="170" height="20" as="geometry" />
        </mxCell>
        <mxCell id="5tv2C6Y2cOQbeZCEMZwO-18" value="サーバ" style="swimlane;startSize=20;html=1;" vertex="1" parent="5tv2C6Y2cOQbeZCEMZwO-1">
          <mxGeometry x="240" y="20" width="250" height="410" as="geometry" />
        </mxCell>
        <mxCell id="5tv2C6Y2cOQbeZCEMZwO-84" style="edgeStyle=orthogonalEdgeStyle;rounded=0;orthogonalLoop=1;jettySize=auto;html=1;exitX=0.5;exitY=1;exitDx=0;exitDy=0;entryX=0.5;entryY=0;entryDx=0;entryDy=0;" edge="1" parent="5tv2C6Y2cOQbeZCEMZwO-18" source="5tv2C6Y2cOQbeZCEMZwO-5" target="5tv2C6Y2cOQbeZCEMZwO-20">
          <mxGeometry relative="1" as="geometry" />
        </mxCell>
        <mxCell id="5tv2C6Y2cOQbeZCEMZwO-5" value="" style="ellipse;whiteSpace=wrap;html=1;aspect=fixed;fillColor=light-dark(#000000, #1a1a1a);fontColor=#333333;strokeColor=#666666;" vertex="1" parent="5tv2C6Y2cOQbeZCEMZwO-18">
          <mxGeometry x="89.5" y="30" width="20" height="20" as="geometry" />
        </mxCell>
        <mxCell id="5tv2C6Y2cOQbeZCEMZwO-20" value="5秒に1回信号を送信" style="rounded=0;whiteSpace=wrap;html=1;" vertex="1" parent="5tv2C6Y2cOQbeZCEMZwO-18">
          <mxGeometry x="14.5" y="70" width="170" height="20" as="geometry" />
        </mxCell>
        <mxCell id="5tv2C6Y2cOQbeZCEMZwO-64" style="edgeStyle=orthogonalEdgeStyle;rounded=0;orthogonalLoop=1;jettySize=auto;html=1;exitX=0.5;exitY=1;exitDx=0;exitDy=0;" edge="1" parent="5tv2C6Y2cOQbeZCEMZwO-18" source="5tv2C6Y2cOQbeZCEMZwO-42">
          <mxGeometry relative="1" as="geometry">
            <mxPoint x="94.5" y="230" as="targetPoint" />
          </mxGeometry>
        </mxCell>
        <mxCell id="5tv2C6Y2cOQbeZCEMZwO-42" value="信号を受信" style="rounded=0;whiteSpace=wrap;html=1;" vertex="1" parent="5tv2C6Y2cOQbeZCEMZwO-18">
          <mxGeometry x="9.5" y="190" width="170" height="20" as="geometry" />
        </mxCell>
        <mxCell id="5tv2C6Y2cOQbeZCEMZwO-81" style="edgeStyle=orthogonalEdgeStyle;rounded=0;orthogonalLoop=1;jettySize=auto;html=1;exitX=1;exitY=0.5;exitDx=0;exitDy=0;entryX=1;entryY=0.5;entryDx=0;entryDy=0;" edge="1" parent="5tv2C6Y2cOQbeZCEMZwO-18" source="5tv2C6Y2cOQbeZCEMZwO-43" target="5tv2C6Y2cOQbeZCEMZwO-20">
          <mxGeometry relative="1" as="geometry" />
        </mxCell>
        <mxCell id="5tv2C6Y2cOQbeZCEMZwO-43" value="" style="rhombus;whiteSpace=wrap;html=1;" vertex="1" parent="5tv2C6Y2cOQbeZCEMZwO-18">
          <mxGeometry x="84" y="230" width="20" height="20" as="geometry" />
        </mxCell>
        <mxCell id="5tv2C6Y2cOQbeZCEMZwO-68" value="30秒以内に&lt;div&gt;受信成功&lt;/div&gt;" style="text;html=1;align=center;verticalAlign=middle;resizable=0;points=[];autosize=1;strokeColor=none;fillColor=none;" vertex="1" parent="5tv2C6Y2cOQbeZCEMZwO-18">
          <mxGeometry x="150" y="140" width="80" height="40" as="geometry" />
        </mxCell>
        <mxCell id="5tv2C6Y2cOQbeZCEMZwO-71" value="30秒以内に&lt;div&gt;受信失敗&lt;/div&gt;" style="text;html=1;align=center;verticalAlign=middle;resizable=0;points=[];autosize=1;strokeColor=none;fillColor=none;" vertex="1" parent="5tv2C6Y2cOQbeZCEMZwO-18">
          <mxGeometry x="45" y="283" width="80" height="40" as="geometry" />
        </mxCell>
        <mxCell id="5tv2C6Y2cOQbeZCEMZwO-80" value="" style="edgeStyle=orthogonalEdgeStyle;rounded=0;orthogonalLoop=1;jettySize=auto;html=1;exitX=0.5;exitY=1;exitDx=0;exitDy=0;entryX=0.5;entryY=0;entryDx=0;entryDy=0;" edge="1" parent="5tv2C6Y2cOQbeZCEMZwO-18" source="5tv2C6Y2cOQbeZCEMZwO-82">
          <mxGeometry relative="1" as="geometry">
            <mxPoint x="404" y="360" as="sourcePoint" />
            <mxPoint x="94" y="350" as="targetPoint" />
          </mxGeometry>
        </mxCell>
        <mxCell id="5tv2C6Y2cOQbeZCEMZwO-82" value="" style="verticalLabelPosition=bottom;verticalAlign=top;html=1;shape=mxgraph.flowchart.or;" vertex="1" parent="5tv2C6Y2cOQbeZCEMZwO-18">
          <mxGeometry x="84.5" y="350" width="20" height="20" as="geometry" />
        </mxCell>
        <mxCell id="5tv2C6Y2cOQbeZCEMZwO-83" value="" style="edgeStyle=orthogonalEdgeStyle;rounded=0;orthogonalLoop=1;jettySize=auto;html=1;exitX=0.5;exitY=1;exitDx=0;exitDy=0;entryX=0.5;entryY=0;entryDx=0;entryDy=0;" edge="1" parent="5tv2C6Y2cOQbeZCEMZwO-18" source="5tv2C6Y2cOQbeZCEMZwO-43" target="5tv2C6Y2cOQbeZCEMZwO-82">
          <mxGeometry relative="1" as="geometry">
            <mxPoint x="404" y="360" as="sourcePoint" />
            <mxPoint x="404" y="460" as="targetPoint" />
          </mxGeometry>
        </mxCell>
        <mxCell id="5tv2C6Y2cOQbeZCEMZwO-58" style="edgeStyle=orthogonalEdgeStyle;rounded=0;orthogonalLoop=1;jettySize=auto;html=1;exitX=0;exitY=0.5;exitDx=0;exitDy=0;entryX=1;entryY=0.5;entryDx=0;entryDy=0;" edge="1" parent="5tv2C6Y2cOQbeZCEMZwO-1" source="5tv2C6Y2cOQbeZCEMZwO-20" target="5tv2C6Y2cOQbeZCEMZwO-9">
          <mxGeometry relative="1" as="geometry" />
        </mxCell>
        <mxCell id="5tv2C6Y2cOQbeZCEMZwO-59" style="edgeStyle=orthogonalEdgeStyle;rounded=0;orthogonalLoop=1;jettySize=auto;html=1;exitX=1;exitY=0.5;exitDx=0;exitDy=0;entryX=0;entryY=0.5;entryDx=0;entryDy=0;" edge="1" parent="5tv2C6Y2cOQbeZCEMZwO-1" source="5tv2C6Y2cOQbeZCEMZwO-47" target="5tv2C6Y2cOQbeZCEMZwO-42">
          <mxGeometry relative="1" as="geometry" />
        </mxCell>
      </root>
    </mxGraphModel>
  </diagram>
</mxfile>
